<?xml version="1.0" encoding="UTF-8"?>
<svg version="1.1" xmlns="http://www.w3.org/2000/svg" width="1024" height="1024">
<path d="M0 0 C2.1269132 0.00564374 4.25381843 0.00846195 6.3807373 0.0110817 C26.60439592 0.047298 46.54203441 0.44856348 66.59460449 3.31805801 C67.84692871 3.48434708 69.09925293 3.65063614 70.38952637 3.82196426 C158.47291552 15.61299801 242.45819646 49.89469416 333.14685059 120.37274551 C335.32421149 122.23871809 337.51339324 124.08836043 339.71838379 125.92157364 C348.52465162 133.28749121 356.73736756 141.15040057 364.82824707 149.2909584 C366.91545641 151.38895309 369.01324039 153.47594917 371.11218262 155.56219864 C377.67759627 162.12145923 384.01787102 168.68032998 389.74401855 175.99603653 C391.73895139 178.49917719 393.85779927 180.84491843 396.03210449 183.19305801 C400.78349544 188.42205845 405.0793368 193.94692771 409.30749512 199.59833145 C410.15183754 200.7264703 410.99939196 201.85221379 411.85046387 202.97528458 C431.90028261 229.44415382 448.71672977 257.67992022 463.59460449 287.31805801 C464.06140625 288.24231583 464.52820801 289.16657364 465.00915527 290.11883926 C488.87293002 337.65041898 503.53401533 389.94857419 510.90710449 442.50555801 C511.05429932 443.55203506 511.20149414 444.59851212 511.35314941 445.67670059 C511.81730982 449.21914892 512.2211381 452.76516658 512.59460449 456.31805801 C512.68074005 457.12172806 512.76687561 457.9253981 512.85562134 458.75342178 C514.62055333 475.73536154 514.95865042 492.66259928 514.91266251 509.72345352 C514.90701876 511.85036673 514.90420056 513.97727195 514.90158081 516.10419083 C514.8653645 536.32784944 514.46409903 556.26548793 511.59460449 576.31805801 C511.3451709 578.19654434 511.3451709 578.19654434 511.09069824 580.11297989 C499.29966449 668.19636904 465.01796835 752.18164998 394.53991699 842.87030411 C392.67394442 845.04766501 390.82430208 847.23684676 388.99108887 849.44183731 C381.6251713 858.24810514 373.76226194 866.46082108 365.6217041 874.55170059 C363.52370942 876.63890993 361.43671334 878.73669391 359.35046387 880.83563614 C352.79120327 887.40104979 346.23233253 893.74132454 338.91662598 899.46747208 C336.41348531 901.46240491 334.06774408 903.58125279 331.71960449 905.75555801 C326.49060406 910.50694896 320.96573479 914.80279033 315.31433105 919.03094864 C314.18619221 919.87529106 313.06044872 920.72284548 311.93737793 921.57391739 C285.46850869 941.62373613 257.23274228 958.44018329 227.59460449 973.31805801 C226.67034668 973.78485977 225.74608887 974.25166153 224.79382324 974.7326088 C177.26224352 998.59638355 124.96408831 1013.25746885 72.40710449 1020.63055801 C71.36062744 1020.77775284 70.31415039 1020.92494766 69.23596191 1021.07660294 C65.69351359 1021.54076334 62.14749593 1021.94459162 58.59460449 1022.31805801 C57.79093445 1022.40419357 56.9872644 1022.49032913 56.15924072 1022.57907486 C39.17730097 1024.34400685 22.25006322 1024.68210394 5.18920898 1024.63611603 C3.06229578 1024.63047228 0.93539056 1024.62765408 -1.19152832 1024.62503433 C-21.41518693 1024.58881802 -41.35282542 1024.18755255 -61.40539551 1021.31805801 C-63.28388184 1021.06862442 -63.28388184 1021.06862442 -65.20031738 1020.81415176 C-153.28370653 1009.02311802 -237.26898748 974.74142187 -327.9576416 904.26337051 C-330.1350025 902.39739794 -332.32418425 900.5477556 -334.5291748 898.71454239 C-343.33544264 891.34862482 -351.54815858 883.48571546 -359.63903809 875.34515762 C-361.72624743 873.24716294 -363.82403141 871.16016686 -365.92297363 869.07391739 C-372.48838729 862.5146568 -378.82866203 855.95578605 -384.55480957 848.6400795 C-386.54974241 846.13693884 -388.66859028 843.7911976 -390.84289551 841.44305801 C-395.59428646 836.21405758 -399.89012782 830.68918831 -404.11828613 825.03778458 C-404.96262855 823.90964573 -405.81018297 822.78390224 -406.66125488 821.66083145 C-426.71107363 795.19196221 -443.52752078 766.9561958 -458.40539551 737.31805801 C-458.87219727 736.3938002 -459.33899902 735.46954239 -459.81994629 734.51727676 C-483.68372104 686.98569705 -498.34480634 634.68754184 -505.71789551 582.13055801 C-505.93868774 580.56084244 -505.93868774 580.56084244 -506.16394043 578.95941544 C-506.62810084 575.41696711 -507.03192911 571.87094945 -507.40539551 568.31805801 C-507.53459885 567.11255295 -507.53459885 567.11255295 -507.66641235 565.88269424 C-509.43134434 548.90075449 -509.76944143 531.97351674 -509.72345352 514.91266251 C-509.71780978 512.7857493 -509.71499157 510.65884408 -509.71237183 508.5319252 C-509.67615552 488.30826659 -509.27489004 468.3706281 -506.40539551 448.31805801 C-506.23910645 447.0657338 -506.07281738 445.81340958 -505.90148926 444.52313614 C-494.11045551 356.43974699 -459.82875936 272.45446604 -389.35070801 181.76581192 C-387.48473543 179.58845102 -385.6350931 177.39926927 -383.80187988 175.19427872 C-376.43596232 166.38801089 -368.57305295 158.17529494 -360.43249512 150.08441544 C-358.33450043 147.9972061 -356.24750436 145.89942212 -354.16125488 143.80047989 C-347.60199429 137.23506623 -341.04312355 130.89479149 -333.72741699 125.16864395 C-331.22427633 123.17371111 -328.8785351 121.05486324 -326.53039551 118.88055801 C-321.30139507 114.12916707 -315.77652581 109.8333257 -310.12512207 105.60516739 C-308.99698322 104.76082497 -307.87123973 103.91327055 -306.74816895 103.06219864 C-280.2792997 83.01237989 -252.0435333 66.19593274 -222.40539551 51.31805801 C-221.4811377 50.85125626 -220.55687988 50.3844545 -219.60461426 49.90350723 C-172.07303454 26.03973248 -119.77487933 11.37864718 -67.21789551 4.00555801 C-66.17141846 3.85836319 -65.12494141 3.71116837 -64.04675293 3.55951309 C-60.5043046 3.09535268 -56.95828695 2.69152441 -53.40539551 2.31805801 C-52.60172546 2.23192245 -51.79805542 2.1457869 -50.97003174 2.05704117 C-33.98809199 0.29210918 -17.06085424 -0.04598791 0 0 Z " fill="#141414" transform="translate(509.4053955078125,-0.3180580139160156)"/>
<path d="M0 0 C9.26126752 4.01668457 15.95617977 14.26817862 22 22 C22.67071533 22.84812256 22.67071533 22.84812256 23.35498047 23.71337891 C68.92623466 81.58089325 88.70349426 155.90313951 80.32417297 229.02761841 C79.3144402 236.77399388 77.74398862 244.3887354 76 252 C75.633668 253.76786771 75.26897324 255.53607583 74.90625 257.3046875 C65.70195642 299.78250238 43.66315612 340.57343712 15 373 C14.31035156 373.80050781 13.62070312 374.60101562 12.91015625 375.42578125 C1.88871162 388.01265179 -9.94220836 399.87694665 -23.41503906 409.82080078 C-24.91731118 410.93848013 -26.39318332 412.0913902 -27.8671875 413.24609375 C-54.73999231 434.12648641 -85.51051495 448.32696918 -118 458 C-119.22332031 458.37125 -120.44664062 458.7425 -121.70703125 459.125 C-163.20053595 470.81625164 -210.05970107 471.91801343 -252 462 C-252.74878418 461.82742676 -253.49756836 461.65485352 -254.26904297 461.47705078 C-299.15470654 451.0733264 -338.95137291 430.21447834 -373.9375 400.3125 C-374.55286621 399.78970459 -375.16823242 399.26690918 -375.80224609 398.72827148 C-376.39215332 398.21594971 -376.98206055 397.70362793 -377.58984375 397.17578125 C-378.10409912 396.73145752 -378.61835449 396.28713379 -379.14819336 395.8293457 C-380.91460796 394.08435631 -382.50623532 392.27496648 -384.11573792 390.38566589 C-384.65590325 389.75248538 -385.19606859 389.11930487 -385.75260258 388.46693707 C-386.16424373 387.98284783 -386.57588488 387.4987586 -387 387 C-372.1470892 372.12369744 -357.29129239 357.25028241 -342.43208313 342.38027096 C-335.53229626 335.47533445 -328.63344606 328.569467 -321.73681641 321.66137695 C-315.72359581 315.63816876 -309.70860153 309.6167384 -303.6914978 303.59740931 C-300.50749628 300.4121076 -297.32437157 297.22594095 -294.14337158 294.03764153 C-291.1447707 291.03221605 -288.14379051 288.02918658 -285.14102745 285.02791977 C-284.04374365 283.93036253 -282.94730619 282.83195835 -281.85181618 281.7326107 C-276.07833202 275.93980747 -270.25207911 270.27941799 -264 265 C-263.04996094 264.18015625 -262.09992188 263.3603125 -261.12109375 262.515625 C-222.85180927 230.20676766 -177.46918306 206.92410514 -126.21289062 211.234375 C-84.96563284 215.82747623 -48.74132266 236.88621228 -17.89501953 263.69946289 C-15.73557584 265.99285671 -15.73557584 265.99285671 -13 267 C-13.55945313 266.42636719 -14.11890625 265.85273437 -14.6953125 265.26171875 C-38.72882969 239.79855504 -57.14741824 207.89842542 -66 174 C-66.19062012 173.28199219 -66.38124023 172.56398438 -66.57763672 171.82421875 C-71.95145651 150.39041321 -71.06044454 124.11197114 -65 103 C-64.80696289 102.28521484 -64.61392578 101.57042969 -64.41503906 100.83398438 C-56.94209192 73.66632432 -41.9258999 48.52529653 -24 27 C-23.55301758 26.45682129 -23.10603516 25.91364258 -22.64550781 25.35400391 C-15.45381921 16.62197883 -8.00310952 8.00310952 0 0 Z " fill="#FEFEFE" transform="translate(659,378)"/>
<path d="M0 0 C1.35617432 0.01522705 1.35617432 0.01522705 2.73974609 0.03076172 C23.47454957 0.27152028 45.091717 3.99196224 64.83203125 10.30664062 C67.17306089 11.0553483 69.52368302 11.76867679 71.875 12.484375 C110.87761088 24.64811488 145.40728163 45.45373366 175.5625 72.875 C176.07554687 73.3395459 176.58859375 73.8040918 177.1171875 74.28271484 C179.44147118 76.42296663 181.23557259 78.35335888 183 81 C168.1470892 95.87630256 153.29129239 110.74971759 138.43208313 125.61972904 C131.53229626 132.52466555 124.63344606 139.430533 117.73681641 146.33862305 C111.72359581 152.36183124 105.70860153 158.3832616 99.6914978 164.40259069 C96.50749628 167.5878924 93.32437157 170.77405905 90.14337158 173.96235847 C87.1447707 176.96778395 84.14379051 179.97081342 81.14102745 182.97208023 C80.04374365 184.06963747 78.94730619 185.16804165 77.85181618 186.2673893 C72.0774442 192.06108331 66.2418452 197.70760769 60 203 C58.98971407 203.88799203 57.98054482 204.77725661 56.97265625 205.66796875 C35.44741266 224.3039179 10.82049183 239.32221254 -16 249 C-16.89211182 249.32387695 -17.78422363 249.64775391 -18.70336914 249.98144531 C-25.71582237 252.43235557 -32.60133297 254.1111853 -39.9375 255.25 C-41.01580078 255.41838379 -42.09410156 255.58676758 -43.20507812 255.76025391 C-88.36880234 262.3117818 -131.30857489 246.1717527 -167.359375 219.53515625 C-174.19749088 214.39769065 -180.73705194 208.92015846 -187.22265625 203.34765625 C-189.43445049 201.4780524 -191.65851102 199.70136969 -194 198 C-193.071875 198.86625 -192.14375 199.7325 -191.1875 200.625 C-185.55386365 206.26997164 -180.81597093 212.66259793 -176 219 C-175.29472168 219.92208252 -175.29472168 219.92208252 -174.57519531 220.86279297 C-150.59206369 252.33961589 -134.98510353 287.60754 -134.75 327.5625 C-134.7358606 329.372948 -134.7358606 329.372948 -134.72143555 331.2199707 C-134.89146976 378.47985796 -160.90440139 419.54359016 -191 454 C-191.52480957 454.60537598 -192.04961914 455.21075195 -192.59033203 455.83447266 C-194.19277046 457.67274707 -195.81193692 459.49466602 -197.4375 461.3125 C-198.18169189 462.16714844 -198.18169189 462.16714844 -198.94091797 463.0390625 C-200.37109375 464.61328125 -200.37109375 464.61328125 -203 467 C-207 467 -207 467 -209.26171875 465.19921875 C-215.19735374 459.05330362 -220.71978703 452.71614008 -226 446 C-226.77988281 445.03707031 -227.55976563 444.07414062 -228.36328125 443.08203125 C-235.68301045 433.87108015 -241.91379238 424.05870613 -248 414 C-248.61705811 412.98897217 -248.61705811 412.98897217 -249.24658203 411.95751953 C-264.18353526 387.27989266 -274.43638712 359.22272876 -280.35058594 331.06787109 C-280.76206799 329.12400511 -281.19038123 327.18356298 -281.64160156 325.24853516 C-296.6388632 260.35150995 -279.58537181 185.49782574 -244.9765625 129.66015625 C-240.91556623 123.23699205 -236.58899339 117.05504569 -232 111 C-231.56864746 110.42588379 -231.13729492 109.85176758 -230.69287109 109.26025391 C-223.96763536 100.34974625 -216.75404981 92.02732029 -209 84 C-208.40106934 83.37915527 -207.80213867 82.75831055 -207.18505859 82.11865234 C-199.51320586 74.20921965 -191.73754331 66.7414666 -183 60 C-182.0203125 59.21496094 -181.040625 58.42992187 -180.03125 57.62109375 C-149.81929592 33.57755181 -114.13692086 16.57499502 -76.66162109 7.63623047 C-74.24458775 7.05846594 -71.83518718 6.45625316 -69.42578125 5.84765625 C-46.49146375 0.21248519 -23.48510953 -0.50813176 0 0 Z " fill="#FEFEFE" transform="translate(569,177)"/>
</svg>
