<?xml version="1.0" encoding="UTF-8"?>
<svg width="106px" height="24px" viewBox="0 0 106 24" version="1.1" xmlns="http://www.w3.org/2000/svg" xmlns:xlink="http://www.w3.org/1999/xlink">
    <title>logo/图+文</title>
    <g id="logo/图+文" stroke="none" stroke-width="1" fill="none" fill-rule="evenodd">
        <g id="编组-2">
            <rect id="矩形" x="0" y="0" width="106" height="24"></rect>
            <g id="编组-5备份-3" transform="translate(30, 4.44)" fill="#FFFFFF" fill-rule="nonzero">
                <g id="编组-2">
                    <path d="M40.9231592,3.87692285 C43.5401409,3.87692285 45.6616238,5.99840421 45.6616238,8.6153841 C45.6616238,11.232364 43.5401409,13.3538454 40.9231592,13.3538454 C39.7776804,13.3538454 38.7271341,12.9473908 37.9078769,12.2708379 L37.9077727,15.9384606 C37.9077727,16.4142751 37.5220486,16.799999 37.0462337,16.799999 C36.5704189,16.799999 36.1846947,16.4142751 36.1846947,15.9384606 L36.1846947,9.04615331 C36.1846947,9.00259548 36.1879272,8.95979264 36.1941653,8.91797157 C36.1878934,8.8178721 36.1846947,8.71700165 36.1846947,8.6153841 C36.1846947,5.99840421 38.3061775,3.87692285 40.9231592,3.87692285 Z M40.9231592,5.59999967 C39.2578073,5.59999967 37.9077727,6.95003327 37.9077727,8.6153841 C37.9077727,10.2807349 39.2578073,11.6307685 40.9231592,11.6307685 C42.5885112,11.6307685 43.9385458,10.2807349 43.9385458,8.6153841 C43.9385458,6.95003327 42.5885112,5.59999967 40.9231592,5.59999967 Z" id="形状结合"></path>
                    <path d="M29.8916745,0 C32.0787694,0 33.5838335,0.822026501 34.7108653,2.27106641 C35.0029874,2.64665166 34.9353269,3.18793523 34.5597414,3.48005709 C34.1841559,3.77217895 33.6428719,3.7045185 33.3507499,3.32893325 C32.5343789,2.27931418 31.5159533,1.72307682 29.8916745,1.72307682 C27.9836125,1.72307682 27.0869905,2.5947921 27.0869905,3.64280915 C27.0869905,4.63645494 27.8135499,5.33607707 30.2078785,5.81147553 L30.3072169,5.83088641 C33.3393603,6.41399049 34.5179847,7.44975067 34.7869789,9.06371458 C34.916933,9.84343848 34.766854,10.8106132 34.2249349,11.6147507 C33.4738231,12.7293029 32.1107335,13.3538454 30.1445175,13.3538454 C28.757373,13.3538454 27.557218,13.0033756 26.551924,12.4111034 C26.1869349,12.1960688 25.8694002,11.9612565 25.597795,11.7193534 C25.4176388,11.5588986 25.2886791,11.4246139 25.1903463,11.3091798 C24.8817963,10.9469692 24.9252971,10.4032105 25.2875079,10.0946608 C25.6497187,9.78611099 26.1934778,9.82961169 26.5020278,10.1918223 C26.5519938,10.250478 26.6271147,10.3287009 26.7438061,10.4326311 C26.9342997,10.6022928 27.1618226,10.7705427 27.4265719,10.9265207 C28.1753705,11.3676778 29.0763033,11.6307685 30.1445175,11.6307685 C31.5711131,11.6307685 32.3887815,11.256128 32.7960442,10.6518032 C33.0682374,10.2479039 33.1498453,9.72198678 33.0873452,9.34698667 C33.0277151,8.98920596 32.9297109,8.78025375 32.6573267,8.54088604 C32.2132823,8.15066548 31.3951179,7.80539092 30.094485,7.54506374 L29.9818181,7.52295895 C26.7686312,6.90503882 25.3639125,5.57836096 25.3639125,3.64280915 C25.3639125,1.63213073 27.0426767,0 29.8916745,0 Z" id="路径"></path>
                    <path d="M51.6923968,3.87692285 C54.3093785,3.87692285 56.4308614,5.99840421 56.4308614,8.6153841 C56.4308614,8.71700165 56.4276626,8.8178721 56.4213604,8.91790025 C56.4276289,8.95979264 56.4308614,9.00259548 56.4308614,9.04615331 L56.4308614,12.492307 C56.4308614,12.9681215 56.0451372,13.3538454 55.5693223,13.3538454 C55.0935075,13.3538454 54.7077833,12.9681215 54.7077833,12.492307 L54.7078935,12.2706609 C53.8886051,12.9473199 52.8379756,13.3538454 51.6923968,13.3538454 C49.0754151,13.3538454 46.9539323,11.232364 46.9539323,8.6153841 C46.9539323,5.99840421 49.0754151,3.87692285 51.6923968,3.87692285 Z M51.6923968,5.59999967 C50.0270448,5.59999967 48.6770103,6.95003327 48.6770103,8.6153841 C48.6770103,10.2807349 50.0270448,11.6307685 51.6923968,11.6307685 C53.3577488,11.6307685 54.7077833,10.2807349 54.7077833,8.6153841 C54.7077833,6.95003327 53.3577488,5.59999967 51.6923968,5.59999967 Z" id="形状结合"></path>
                    <path d="M59.111034,5.26478602 C60.9615195,3.41430179 63.9617493,3.41430179 65.8122348,5.26478602 C66.1486867,5.60123769 66.1486867,6.14673364 65.8122348,6.48318532 C65.4757829,6.819637 64.9302866,6.819637 64.5938347,6.48318532 C63.416253,5.30560445 61.5070158,5.30560445 60.3294341,6.48318532 C59.1518525,7.66076619 59.1518525,9.57000202 60.3294341,10.7475829 C61.5070158,11.9251638 63.416253,11.9251638 64.5938347,10.7475829 C64.9302866,10.4111312 65.4757829,10.4111312 65.8122348,10.7475829 C66.1486867,11.0840346 66.1486867,11.6295305 65.8122348,11.9659822 C63.9617493,13.8164664 60.9615195,13.8164664 59.111034,11.9659822 C57.2605485,10.115498 57.2605485,7.11527024 59.111034,5.26478602 Z" id="路径"></path>
                    <path d="M69.0496308,4.98551219 C71.0543551,3.30334994 74.0431681,3.56483702 75.7253315,5.56955992 C76.0311794,5.93405499 75.9836363,6.47747516 75.619141,6.78332285 L71.9892665,9.82914703 C71.6247712,10.1349947 71.0813507,10.0874516 70.7755028,9.72295654 C70.4696549,9.35846146 70.517198,8.81504129 70.8816933,8.50919361 L73.7559833,6.09744784 L73.7477843,6.09206106 C72.6840558,5.39493176 71.2550412,5.42811681 70.2156181,6.25765942 L70.157204,6.30546561 C68.8814704,7.3759325 68.7150694,9.2779031 69.785537,10.5536359 C70.8560046,11.8293686 72.7579766,11.9957695 74.0337102,10.9253026 C74.3982055,10.6194549 74.9416261,10.666998 75.247474,11.0314931 C75.5533219,11.3959882 75.5057787,11.9394083 75.1412834,12.245256 C73.1365591,13.9274183 70.1477461,13.6659312 68.4655827,11.6612083 C66.7834193,9.65648539 67.0449065,6.66767444 69.0496308,4.98551219 Z" id="路径"></path>
                    <path d="M19.3846276,3.87692285 C21.7637019,3.87692285 23.6923227,5.80554227 23.6923227,8.1846149 L23.6923227,12.492307 C23.6923227,12.9681215 23.3065985,13.3538454 22.8307837,13.3538454 C22.3549688,13.3538454 21.9692447,12.9681215 21.9692447,12.492307 L21.9692447,8.1846149 C21.9692447,6.75717132 20.8120722,5.59999967 19.3846276,5.59999967 C17.9571831,5.59999967 16.8000106,6.75717132 16.8000106,8.1846149 L16.8000106,12.492307 C16.8000106,12.9681215 16.4142865,13.3538454 15.9384716,13.3538454 C15.9209058,13.3538454 15.9034627,13.3533197 15.8861573,13.3522831 C15.8679446,13.3533189 15.8494234,13.3538454 15.8307792,13.3538454 C15.2954875,13.3538454 14.8615479,12.919906 14.8615479,12.3846146 L14.8615479,5.06153816 C14.8615479,4.52624682 15.2954875,4.09230745 15.8307792,4.09230745 C16.2651618,4.09230745 16.6328028,4.3780617 16.755976,4.77184409 C17.4831342,4.21070299 18.3949016,3.87692285 19.3846276,3.87692285 Z" id="路径"></path>
                    <path d="M6.78461967,0 C10.5316616,0 13.5692393,3.03757559 13.5692393,6.78461498 C13.5692393,10.5316544 10.5316616,13.56923 6.78461967,13.56923 C3.03757769,13.56923 0,10.5316544 0,6.78461498 C0,3.03757559 3.03757769,0 6.78461967,0 Z M6.78461967,1.72307682 C3.9892074,1.72307682 1.72307801,3.98920465 1.72307801,6.78461498 C1.72307801,9.58002532 3.9892074,11.8461531 6.78461967,11.8461531 C9.58003194,11.8461531 11.8461613,9.58002532 11.8461613,6.78461498 C11.8461613,3.98920465 9.58003194,1.72307682 6.78461967,1.72307682 Z" id="形状结合"></path>
                </g>
            </g>
            <g id="logo/2备份">
                <rect id="矩形" x="0" y="0" width="24" height="24"></rect>
                <path d="M6.80055965,3.09796943 C10.5561856,-0.657656476 16.6452582,-0.657656476 20.4008841,3.09796943 L16.6917047,6.80714883 C13.3946564,10.1041972 10.097608,10.1041972 6.80055965,6.80714883 C10.0646375,10.0712267 10.0972783,13.3353046 6.89848199,16.5993825 L6.80055965,16.6982939 C3.04493375,12.942668 3.04493375,6.85359533 6.80055965,3.09796943 Z M17.186262,7.30170609 C20.9418879,11.057332 20.9418879,17.1464047 17.186262,20.9020306 C13.4306361,24.6576565 7.3415634,24.6576565 3.5859375,20.9020306 L7.29511691,17.1928512 C10.5921653,13.8958028 13.8891759,13.895765 17.186262,17.1928512 C13.9221467,13.9287359 13.8895426,10.6646947 17.0883396,7.40061753 L17.186262,7.30170609 Z" id="形状" fill="#FFFFFF"></path>
            </g>
        </g>
    </g>
</svg>