<?xml version="1.0" encoding="UTF-8"?>
<svg width="124px" height="14px" viewBox="0 0 124 14" version="1.1" xmlns="http://www.w3.org/2000/svg" xmlns:xlink="http://www.w3.org/1999/xlink">
    <title>logo/new文-白</title>
    <defs>
        <linearGradient x1="-2.02095285e-14%" y1="50%" x2="100%" y2="50%" id="linearGradient-1">
            <stop stop-color="#FF7DF1" offset="0%"></stop>
            <stop stop-color="#3756FF" offset="36.5712413%"></stop>
            <stop stop-color="#6BAAFF" offset="71.5280813%"></stop>
            <stop stop-color="#3FFFDE" offset="100%"></stop>
        </linearGradient>
        <path d="M13.5580866,0 C16.5220567,0 18.9248292,2.38184513 18.9248292,5.32 L18.9248292,8.68 C18.9248292,11.6181549 16.5220567,14 13.5580866,14 L5.3667426,14 C2.4027725,14 0,11.6181549 0,8.68 L0,5.32 C0,2.38184513 2.4027725,0 5.3667426,0 L13.5580866,0 Z M12.9931663,3.08 L6.21412301,3.08 C4.49814032,3.08 3.1070615,4.45896297 3.1070615,6.16 L3.1070615,7.84 C3.1070615,9.54103703 4.49814032,10.92 6.21412301,10.92 L12.9931663,10.92 C14.709149,10.92 16.1002278,9.54103703 16.1002278,7.84 L16.1002278,6.16 C16.1002278,4.45896297 14.709149,3.08 12.9931663,3.08 Z" id="path-2"></path>
    </defs>
    <g id="logo/new文-白" stroke="none" stroke-width="1" fill="none" fill-rule="evenodd">
        <g id="形状">
            <use fill="#000000" xlink:href="#path-2"></use>
            <use fill="url(#linearGradient-1)" xlink:href="#path-2"></use>
        </g>
        <path d="M31.070615,0 C34.0345851,0 36.4373576,2.38184513 36.4373576,5.32 L36.4373576,13.16 C36.4373576,13.6239192 36.0579725,14 35.5899772,14 L34.1776765,14 C33.7096813,14 33.3302961,13.6239192 33.3302961,13.16 L33.3302961,6.16 C33.3302961,4.45896297 31.9392173,3.08 30.2232346,3.08 L28.5284738,3.08 C26.8124911,3.08 25.4214123,4.45896297 25.4214123,6.16 L25.4214123,13.16 C25.4214123,13.6239192 25.0420272,14 24.5740319,14 L23.1617312,14 C22.6937359,14 22.3143508,13.6239192 22.3143508,13.16 L22.3143508,5.32 C22.3143508,2.38184513 24.7171233,0 27.6810934,0 L31.070615,0 Z M49.642369,5.46 C52.021345,5.46 53.9498861,7.37174412 53.9498861,9.73 C53.9498861,12.0882559 52.021345,14 49.642369,14 L41.23918,14 C40.7711847,14 40.3917995,13.6239192 40.3917995,13.16 L40.3917995,11.76 C40.3917995,11.2960808 40.7711847,10.92 41.23918,10.92 L49.642369,10.92 C50.3053623,10.92 50.8428246,10.3872189 50.8428246,9.73 C50.8428246,9.07278115 50.3053623,8.54 49.642369,8.54 L44.1343964,8.54 C41.7554204,8.54 39.8268793,6.62825588 39.8268793,4.27 C39.8268793,1.91174412 41.7554204,0 44.1343964,0 L52.5375854,0 C53.0055807,0 53.3849658,0.37608081 53.3849658,0.84 L53.3849658,2.24 C53.3849658,2.70391919 53.0055807,3.08 52.5375854,3.08 L44.1343964,3.08 C43.471403,3.08 42.9339408,3.61278115 42.9339408,4.27 C42.9339408,4.92721885 43.471403,5.46 44.1343964,5.46 L49.642369,5.46 Z M106.205011,0.84 L106.205011,2.24 C106.205011,2.70391919 105.825626,3.08 105.357631,3.08 L98.2961276,3.08 C96.5801449,3.08 95.1890661,4.45896297 95.1890661,6.16 L95.1890661,7.84 C95.1890661,9.54103703 96.5801449,10.92 98.2961276,10.92 L105.357631,10.92 C105.825626,10.92 106.205011,11.2960808 106.205011,11.76 L106.205011,13.16 C106.205011,13.6239192 105.825626,14 105.357631,14 L97.4487472,14 C94.4847771,14 92.0820046,11.6181549 92.0820046,8.68 L92.0820046,5.32 C92.0820046,2.38184513 94.4847771,0 97.4487472,0 L105.357631,0 C105.81499,0 106.187721,0.359180485 106.204427,0.808508643 L106.205011,0.84 Z M66.8018223,0 C69.3757964,0 71.4624146,2.06844446 71.4624146,4.62 C71.4624146,7.17155554 69.3757964,9.24 66.8018223,9.24 L61.2938497,9.24 C60.8364906,9.24 60.4637598,9.59918048 60.4470537,10.0485086 L60.4464692,10.08 L60.4464692,13.16 C60.4464692,13.6239192 60.0670841,14 59.5990888,14 L58.1867882,14 C57.7187929,14 57.3394077,13.6239192 57.3394077,13.16 L57.3394077,8.4 C57.3394077,7.16288216 58.3511014,6.16 59.5990888,6.16 L66.8018223,6.16 C67.6598137,6.16 68.3553531,5.47051851 68.3553531,4.62 C68.3553531,3.76948149 67.6598137,3.08 66.8018223,3.08 L58.1867882,3.08 C57.7187929,3.08 57.3394077,2.70391919 57.3394077,2.24 L57.3394077,0.84 C57.3394077,0.37608081 57.7187929,0 58.1867882,0 L66.8018223,0 Z M81.8244617,0 C82.6609097,0 83.4289046,0.458232467 83.8206079,1.19102225 L90.3378412,13.3833167 C90.4473963,13.5882699 90.3686385,13.8424754 90.1619308,13.9511006 C90.1008257,13.9832114 90.0327206,14 89.9635638,14 L87.6446634,14 C87.3324039,14 87.0454598,13.829688 86.8979543,13.5568003 L81.5484808,3.66018561 C81.4252758,3.43225425 81.1856038,3.29 80.9247869,3.29 C80.6639699,3.29 80.424298,3.43225425 80.3010929,3.66018561 L74.9516195,13.5568003 C74.8041139,13.829688 74.5171699,14 74.2049103,14 L71.88601,14 C71.6520647,14 71.4624146,13.8119596 71.4624146,13.58 C71.4624146,13.5114302 71.4793469,13.4439031 71.5117326,13.3833167 L78.0289658,1.19102225 C78.4206691,0.458232467 79.188664,0 80.0251121,0 L81.8244617,0 Z M110.724374,0 L123.15262,0 C123.620615,0 124,0.37608081 124,0.84 L124,2.24 C124,2.70391919 123.620615,3.08 123.15262,3.08 L110.724374,3.08 C110.256378,3.08 109.876993,2.70391919 109.876993,2.24 L109.876993,0.84 C109.876993,0.37608081 110.256378,0 110.724374,0 Z M110.724374,5.46 L121.457859,5.46 C121.925854,5.46 122.305239,5.83608081 122.305239,6.3 L122.305239,7.7 C122.305239,8.16391919 121.925854,8.54 121.457859,8.54 L110.724374,8.54 C110.256378,8.54 109.876993,8.16391919 109.876993,7.7 L109.876993,6.3 C109.876993,5.83608081 110.256378,5.46 110.724374,5.46 Z M110.724374,10.92 L123.15262,10.92 C123.620615,10.92 124,11.2960808 124,11.76 L124,13.16 C124,13.6239192 123.620615,14 123.15262,14 L110.724374,14 C110.256378,14 109.876993,13.6239192 109.876993,13.16 L109.876993,11.76 C109.876993,11.2960808 110.256378,10.92 110.724374,10.92 Z" id="形状" fill="#FFFFFF"></path>
    </g>
</svg>